<?xml version="1.0" encoding="UTF-8" standalone="no"?>
<!-- Created with Inkscape (http://www.inkscape.org/) -->

<svg
   width="521.59985mm"
   height="162.1993mm"
   viewBox="0 0 521.59986 162.1993"
   version="1.1"
   id="svg5"
   sodipodi:docname="about-bg.svg"
   inkscape:version="1.1.2 (0a00cf5339, 2022-02-04)"
   xmlns:inkscape="http://www.inkscape.org/namespaces/inkscape"
   xmlns:sodipodi="http://sodipodi.sourceforge.net/DTD/sodipodi-0.dtd"
   xmlns="http://www.w3.org/2000/svg"
   xmlns:svg="http://www.w3.org/2000/svg">
  <sodipodi:namedview
     id="namedview7"
     pagecolor="#505050"
     bordercolor="#ffffff"
     borderopacity="1"
     inkscape:showpageshadow="0"
     inkscape:pageopacity="0"
     inkscape:pagecheckerboard="1"
     inkscape:deskcolor="#505050"
     inkscape:document-units="mm"
     showgrid="false"
     inkscape:zoom="0.6020265"
     inkscape:cx="1110.4162"
     inkscape:cy="449.31577"
     inkscape:window-width="3440"
     inkscape:window-height="1355"
     inkscape:window-x="0"
     inkscape:window-y="0"
     inkscape:window-maximized="1"
     inkscape:current-layer="layer1"
     inkscape:pageshadow="2" />
  <defs
     id="defs2" />
  <g
     inkscape:label="Layer 1"
     inkscape:groupmode="layer"
     id="layer1"
     transform="translate(153.50129,-84.141352)">
    <path
       id="path499-3"
       style="fill:#000000;stroke-width:0.096312"
       inkscape:transform-center-x="-0.20726687"
       inkscape:transform-center-y="1.8857254"
       d="m 112.40602,84.141352 c -0.94568,3.62757 -2.84474,8.28379 -8.68177,10.97352 5.83703,2.68973 7.73609,7.345728 8.68177,10.973278 0.61377,-3.68806 1.64201,-8.344048 8.68088,-10.973278 -7.03887,-2.62922 -8.06711,-7.28544 -8.68088,-10.97352 z" />
    <path
       id="path499-3-7"
       style="fill:#000000;stroke-width:0.0372653"
       inkscape:transform-center-x="-0.080196766"
       inkscape:transform-center-y="0.72963092"
       d="m -43.748308,117.27977 c -0.3659,1.40358 -1.1007,3.20518 -3.35917,4.2459 2.25847,1.04072 2.99327,2.84223 3.35917,4.24582 0.23748,-1.427 0.63533,-3.22851 3.35883,-4.24582 -2.7235,-1.01731 -3.12135,-2.8189 -3.35883,-4.2459 z" />
    <path
       id="path499-3-7-3"
       style="fill:#000000;stroke-width:0.0372653"
       inkscape:transform-center-x="-0.080196766"
       inkscape:transform-center-y="0.72963092"
       d="m -7.4031963,193.18977 c -0.3659,1.40358 -1.1007,3.20518 -3.3591697,4.2459 2.2584697,1.04072 2.9932697,2.84223 3.3591697,4.24582 0.23748,-1.427 0.63533,-3.22851 3.3588299,-4.24582 -2.7234999,-1.01731 -3.1213499,-2.8189 -3.3588299,-4.2459 z" />
    <path
       id="path499-3-7-5"
       style="fill:#000000;stroke-width:0.0372653"
       inkscape:transform-center-x="-0.080196766"
       inkscape:transform-center-y="0.72963092"
       d="m 279.12658,106.16119 c -0.3659,1.40358 -1.1007,3.20518 -3.35917,4.2459 2.25847,1.04072 2.99327,2.84223 3.35917,4.24582 0.23748,-1.427 0.63533,-3.22851 3.35883,-4.24582 -2.7235,-1.01731 -3.12135,-2.8189 -3.35883,-4.2459 z" />
    <path
       id="path499-3-7-6"
       style="fill:#000000;stroke-width:0.0372653"
       inkscape:transform-center-x="-0.080196766"
       inkscape:transform-center-y="0.72963092"
       d="m 346.02577,135.31201 c -0.3659,1.40358 -1.1007,3.20518 -3.35917,4.2459 2.25847,1.04072 2.99327,2.84223 3.35917,4.24582 0.23748,-1.427 0.63533,-3.22851 3.35883,-4.24582 -2.7235,-1.0173 -3.12135,-2.8189 -3.35883,-4.2459 z" />
    <path
       id="path544"
       style="fill:#000000;stroke-width:0.347164"
       d="m 56.347769,129.16628 a 19.077831,18.468362 0 0 0 -16.798523,9.74845 18.357902,12.855432 0 0 0 -14.157973,-4.67836 18.357902,12.855432 0 0 0 -18.3581116,12.85509 18.357902,12.855432 0 0 0 0.0088,0.16731 19.077814,14.39448 0 0 0 -16.2070017,14.22684 19.077814,14.39448 0 0 0 19.0780767,14.39484 19.077814,14.39448 0 0 0 11.8263666,-3.10122 18.91371,11.648329 0 0 0 12.846486,3.10122 18.91371,11.648329 0 0 0 8.713275,-1.30986 25.197118,13.217554 0 0 0 17.728056,3.84456 25.197118,13.217554 0 0 0 25.196771,-13.21759 25.197118,13.217554 0 0 0 -11.961571,-11.24599 19.077831,18.468362 0 0 0 1.162762,-6.31671 19.077831,18.468362 0 0 0 -19.0774,-18.46858 z" />
    <path
       id="path544-36"
       style="fill:#000000;stroke-width:0.347165"
       d="m 282.03629,191.54309 a 19.077831,18.468362 0 0 0 -16.79847,9.74824 18.357902,12.855432 0 0 0 -14.15777,-4.67827 18.357902,12.855432 0 0 0 -18.35807,12.85503 18.357902,12.855432 0 0 0 0.009,0.16743 19.077814,14.39448 0 0 0 -16.20676,14.22652 19.077814,14.39448 0 0 0 0.2341,2.12442 h 94.94922 a 25.197118,13.217554 0 0 0 -11.75586,-9.65832 19.077831,18.468362 0 0 0 1.16271,-6.31693 19.077831,18.468362 0 0 0 -19.07738,-18.46812 z" />
    <path
       id="path544-3"
       style="fill:#000000;stroke-width:0.264583"
       d="m 238.19478,116.60127 a 14.583418,14.033085 0 0 0 -12.84107,7.4073 14.033092,9.7681303 0 0 0 -10.8226,-3.55482 14.033092,9.7681303 0 0 0 -14.03325,9.76787 14.033092,9.7681303 0 0 0 0.007,0.12713 14.583405,10.937568 0 0 0 -12.38891,10.81019 14.583405,10.937568 0 0 0 14.58361,10.93784 14.583405,10.937568 0 0 0 9.04027,-2.35645 14.457961,8.8509197 0 0 0 9.82008,2.35645 14.457961,8.8509197 0 0 0 6.66057,-0.99529 19.261105,10.043287 0 0 0 13.55163,2.92127 19.261105,10.043287 0 0 0 19.26084,-10.04332 19.261105,10.043287 0 0 0 -9.14363,-8.5452 14.583418,14.033085 0 0 0 0.88884,-4.79972 14.583418,14.033085 0 0 0 -14.58309,-14.03325 z" />
    <path
       id="path224"
       style="fill:#000000;stroke-width:0.264583"
       d="m -115.2718,182.99609 a 13.590253,7.5269049 0 0 0 -13.59038,7.52667 13.590253,7.5269049 0 0 0 0.0935,0.84594 16.517385,9.8268003 0 0 0 -0.72089,-0.009 16.517385,9.8268003 0 0 0 -16.51733,9.82679 16.517385,9.8268003 0 0 0 7.80675,8.34575 14.008411,10.03588 0 0 0 -4.46122,7.33495 14.008411,10.03588 0 0 0 0.21859,1.66501 h 94.883613 a 21.326237,9.6177205 0 0 0 4.419886,-5.84615 21.326237,9.6177205 0 0 0 -11.335742,-8.49716 14.217491,12.335765 0 0 0 0.882115,-4.2571 14.217491,12.335765 0 0 0 -14.217737,-12.33568 14.217491,12.335765 0 0 0 -11.192081,4.73459 20.908079,10.454029 0 0 0 -13.897343,-2.64376 20.908079,10.454029 0 0 0 -8.790161,0.97513 13.590253,7.5269049 0 0 0 0.009,-0.13901 13.590253,7.5269049 0 0 0 -13.59039,-7.52667 z m 1.9203,14.97686 a 20.908079,10.454029 0 0 0 -0.0548,0.14366 19.026342,11.917605 0 0 0 -0.38034,0.0243 16.517385,9.8268003 0 0 0 -0.076,-0.13591 13.590253,7.5269049 0 0 0 0.51108,-0.032 z" />
    <path
       id="path314"
       style="fill:#000000;stroke-width:0.210626"
       d="m 318.91207,186.36411 a 19.140914,14.979851 0 0 0 -16.84187,7.86773 21.970441,10.652332 0 0 0 -16.94574,-3.87315 21.970441,10.652332 0 0 0 -21.97023,10.65207 21.970441,10.652332 0 0 0 2.08359,4.51393 19.473804,10.985224 0 0 0 -7.07708,8.46874 19.473804,10.985224 0 0 0 19.47426,10.98537 19.473804,10.985224 0 0 0 8.1256,-1.00872 22.969102,15.312735 0 0 0 1.25317,1.73581 h 71.13518 a 21.804006,14.147634 0 0 0 6.20221,-9.88157 21.804006,14.147634 0 0 0 -21.80384,-14.14745 21.804006,14.147634 0 0 0 -4.52376,0.30902 19.140914,14.979851 0 0 0 0.03,-0.64234 19.140914,14.979851 0 0 0 -19.14146,-14.97944 z" />
    <path
       id="path542"
       style="fill:#000000;stroke-width:0.199418"
       d="m -70.484163,145.40295 a 32.983162,32.983162 0 0 0 -18.584802,29.67041 32.983162,32.983162 0 0 0 32.983396,32.983 32.983162,32.983162 0 0 0 24.926838,-11.41862 32.760301,32.760301 0 0 1 -15.343877,3.84152 32.760301,32.760301 0 0 1 -32.760219,-32.76022 32.760301,32.760301 0 0 1 8.778664,-22.31609 z" />
    <path
       id="path499-3-7-2"
       style="fill:#000000;stroke-width:0.0372653"
       inkscape:transform-center-x="-0.080196766"
       inkscape:transform-center-y="0.72963092"
       d="m 148.34031,194.11558 c -0.3659,1.40358 -1.1007,3.20518 -3.35917,4.2459 2.25847,1.04072 2.99327,2.84223 3.35917,4.24582 0.23748,-1.427 0.63533,-3.22851 3.35883,-4.24582 -2.7235,-1.01731 -3.12135,-2.8189 -3.35883,-4.2459 z" />
  </g>
</svg>
