<?xml version="1.0" encoding="UTF-8" standalone="no"?>
<!-- Created with Inkscape (http://www.inkscape.org/) -->

<svg
   width="548.69415mm"
   height="231.38336mm"
   viewBox="0 0 548.69416 231.38337"
   version="1.1"
   id="svg5"
   sodipodi:docname="cloud-bg (copy).svg"
   inkscape:version="1.2.1 (9c6d41e410, 2022-07-14)"
   xmlns:inkscape="http://www.inkscape.org/namespaces/inkscape"
   xmlns:sodipodi="http://sodipodi.sourceforge.net/DTD/sodipodi-0.dtd"
   xmlns="http://www.w3.org/2000/svg"
   xmlns:svg="http://www.w3.org/2000/svg">
  <sodipodi:namedview
     id="namedview7"
     pagecolor="#505050"
     bordercolor="#ffffff"
     borderopacity="1"
     inkscape:showpageshadow="0"
     inkscape:pageopacity="0"
     inkscape:pagecheckerboard="1"
     inkscape:deskcolor="#505050"
     inkscape:document-units="mm"
     showgrid="false"
     inkscape:zoom="0.6020265"
     inkscape:cx="1159.4174"
     inkscape:cy="514.9275"
     inkscape:window-width="3440"
     inkscape:window-height="1299"
     inkscape:window-x="0"
     inkscape:window-y="32"
     inkscape:window-maximized="1"
     inkscape:current-layer="layer1" />
  <defs
     id="defs2" />
  <g
     inkscape:label="Layer 1"
     inkscape:groupmode="layer"
     id="layer1"
     transform="translate(166.22404,-66.646952)">
    <path
       id="path499-3"
       style="fill:#000000;stroke-width:0.096312"
       inkscape:transform-center-x="-0.20726687"
       inkscape:transform-center-y="1.8857254"
       d="m 108.12348,72.364397 c -0.94568,3.62757 -2.84474,8.28379 -8.681764,10.97352 5.837024,2.68973 7.736084,7.345727 8.681764,10.973276 0.61377,-3.688059 1.64201,-8.344046 8.68088,-10.973276 -7.03887,-2.62922 -8.06711,-7.28544 -8.68088,-10.97352 z" />
    <path
       id="path499-3-7"
       style="fill:#000000;stroke-width:0.0372653"
       inkscape:transform-center-x="-0.080196766"
       inkscape:transform-center-y="0.72963092"
       d="m -77.473207,216.31323 c -0.3659,1.40358 -1.1007,3.20518 -3.35917,4.2459 2.25847,1.04072 2.99327,2.84223 3.35917,4.24582 0.23748,-1.427 0.63533,-3.22851 3.35883,-4.24582 -2.7235,-1.01731 -3.12135,-2.8189 -3.35883,-4.2459 z" />
    <path
       id="path499-3-7-3"
       style="fill:#000000;stroke-width:0.0372653"
       inkscape:transform-center-x="-0.080196766"
       inkscape:transform-center-y="0.72963092"
       d="m -11.685735,181.41282 c -0.3659,1.40358 -1.1007,3.20518 -3.35917,4.2459 2.25847,1.04072 2.99327,2.84223 3.35917,4.24582 0.23748,-1.427 0.63533,-3.22851 3.3588299,-4.24582 -2.7234999,-1.01731 -3.1213499,-2.8189 -3.3588299,-4.2459 z" />
    <path
       id="path499-3-7-5"
       style="fill:#000000;stroke-width:0.0372653"
       inkscape:transform-center-x="-0.080196766"
       inkscape:transform-center-y="0.72963092"
       d="m 259.3199,226.07198 c -0.3659,1.40358 -1.1007,3.20518 -3.35917,4.2459 2.25847,1.04072 2.99327,2.84223 3.35917,4.24582 0.23748,-1.427 0.63533,-3.22851 3.35883,-4.24582 -2.7235,-1.01731 -3.12135,-2.8189 -3.35883,-4.2459 z" />
    <path
       id="path499-3-7-6"
       style="fill:#000000;stroke-width:0.0372653"
       inkscape:transform-center-x="-0.080196766"
       inkscape:transform-center-y="0.72963092"
       d="m 341.74323,123.53506 c -0.3659,1.40358 -1.1007,3.20518 -3.35917,4.2459 2.25847,1.04072 2.99327,2.84223 3.35917,4.24582 0.23748,-1.427 0.63533,-3.22851 3.35883,-4.24582 -2.7235,-1.0173 -3.12135,-2.8189 -3.35883,-4.2459 z" />
    <path
       id="path544"
       style="fill:#000000;stroke-width:0.347164"
       d="m 52.06523,117.38933 a 19.077831,18.468362 0 0 0 -16.798523,9.74845 18.357902,12.855432 0 0 0 -14.157973,-4.67836 18.357902,12.855432 0 0 0 -18.3581113,12.85509 18.357902,12.855432 0 0 0 0.0088,0.16731 19.077814,14.39448 0 0 0 -16.2070017,14.22684 19.077814,14.39448 0 0 0 19.0780767,14.39484 19.077814,14.39448 0 0 0 11.8263663,-3.10122 18.91371,11.648329 0 0 0 12.846486,3.10122 18.91371,11.648329 0 0 0 8.713275,-1.30986 25.197118,13.217554 0 0 0 17.728056,3.84456 25.197118,13.217554 0 0 0 25.196771,-13.21759 25.197118,13.217554 0 0 0 -11.961571,-11.24599 19.077831,18.468362 0 0 0 1.162762,-6.31671 19.077831,18.468362 0 0 0 -19.0774,-18.46858 z" />
    <path
       id="path544-36"
       style="fill:#000000;stroke-width:0.347164"
       d="m 279.41749,147.90171 a 19.077831,18.468362 0 0 0 -16.79852,9.74845 18.357902,12.855432 0 0 0 -14.15798,-4.67836 18.357902,12.855432 0 0 0 -18.35811,12.85509 18.357902,12.855432 0 0 0 0.009,0.16731 19.077814,14.39448 0 0 0 -16.207,14.22685 19.077814,14.39448 0 0 0 19.07808,14.39484 19.077814,14.39448 0 0 0 11.82636,-3.10122 18.91371,11.648329 0 0 0 12.84649,3.10122 18.91371,11.648329 0 0 0 8.71327,-1.30986 25.197118,13.217554 0 0 0 17.72806,3.84456 25.197118,13.217554 0 0 0 25.19677,-13.21759 25.197118,13.217554 0 0 0 -11.96157,-11.24599 19.077831,18.468362 0 0 0 1.16276,-6.31672 19.077831,18.468362 0 0 0 -19.0774,-18.46858 z" />
    <path
       id="path544-3"
       style="fill:#000000;stroke-width:0.264583"
       d="m 233.91224,104.82432 a 14.583418,14.033085 0 0 0 -12.84107,7.4073 14.033092,9.7681303 0 0 0 -10.8226,-3.55482 14.033092,9.7681303 0 0 0 -14.03325,9.76787 14.033092,9.7681303 0 0 0 0.007,0.12713 14.583405,10.937568 0 0 0 -12.38891,10.81019 14.583405,10.937568 0 0 0 14.58361,10.93784 14.583405,10.937568 0 0 0 9.04027,-2.35645 14.457961,8.8509197 0 0 0 9.82008,2.35645 14.457961,8.8509197 0 0 0 6.66057,-0.99529 19.261105,10.043287 0 0 0 13.55163,2.92127 19.261105,10.043287 0 0 0 19.26084,-10.04332 19.261105,10.043287 0 0 0 -9.14363,-8.5452 14.583418,14.033085 0 0 0 0.88884,-4.79972 14.583418,14.033085 0 0 0 -14.58309,-14.03325 z" />
    <path
       id="path224"
       style="fill:#000000;stroke-width:0.264583"
       d="m -127.04873,136.95872 a 13.590253,7.5269051 0 0 0 -13.59038,7.52667 13.590253,7.5269051 0 0 0 0.0935,0.84594 16.517385,9.8268003 0 0 0 -0.72089,-0.009 16.517385,9.8268003 0 0 0 -16.51733,9.82679 16.517385,9.8268003 0 0 0 7.80675,8.34575 14.008411,10.03588 0 0 0 -4.46122,7.33495 14.008411,10.03588 0 0 0 11.99823,9.93169 18.399103,10.244949 0 0 0 18.10949,8.4677 18.399103,10.244949 0 0 0 15.767,-4.96765 16.935528,12.126685 0 0 0 4.09536,0.36793 16.935528,12.126685 0 0 0 16.639818,-9.91102 21.326237,9.6177206 0 0 0 11.58637,1.54771 21.326237,9.6177206 0 0 0 21.32583,-9.6175 21.326237,9.6177206 0 0 0 -11.33574,-8.49716 14.217491,12.335765 0 0 0 0.88211,-4.2571 14.217491,12.335765 0 0 0 -14.21773,-12.33568 14.217491,12.335765 0 0 0 -11.19209,4.73459 20.908079,10.454029 0 0 0 -13.897348,-2.64376 20.908079,10.454029 0 0 0 -8.79016,0.97513 13.590253,7.5269051 0 0 0 0.009,-0.13901 13.590253,7.5269051 0 0 0 -13.59039,-7.52667 z m 1.9203,14.97686 a 20.908079,10.454029 0 0 0 -0.0548,0.14366 19.026342,11.917605 0 0 0 -0.38034,0.0243 16.517385,9.8268003 0 0 0 -0.076,-0.13591 13.590253,7.5269051 0 0 0 0.51108,-0.032 z" />
    <path
       id="path314"
       style="fill:#000000;stroke-width:0.210626"
       d="m 318.37702,143.00339 a 19.140914,14.979851 0 0 0 -16.84231,7.86765 21.970441,10.652332 0 0 0 -16.94558,-3.87315 21.970441,10.652332 0 0 0 -21.97016,10.65227 21.970441,10.652332 0 0 0 2.08364,4.51408 19.473804,10.985224 0 0 0 -7.07698,8.46867 19.473804,10.985224 0 0 0 19.47392,10.98508 19.473804,10.985224 0 0 0 8.12599,-1.00829 22.969102,15.312735 0 0 0 21.33418,9.66332 22.969102,15.312735 0 0 0 20.02104,-7.82569 21.804006,14.147634 0 0 0 15.43129,4.164 21.804006,14.147634 0 0 0 21.80397,-14.14778 21.804006,14.147634 0 0 0 -21.80397,-14.14736 21.804006,14.147634 0 0 0 -4.52354,0.30935 19.140914,14.979851 0 0 0 0.0296,-0.64257 19.140914,14.979851 0 0 0 -19.14111,-14.97958 z" />
    <path
       id="path327"
       style="fill:#000000;stroke-width:0.262606"
       d="m 108.12097,246.58073 a 283.85745,69.190231 0 0 0 -274.34501,51.44958 H 382.47012 A 283.85745,69.190231 0 0 0 108.12097,246.58073 Z" />
    <path
       id="path542"
       style="fill:#000000;stroke-width:0.199418"
       d="m -82.261118,99.365765 a 32.983162,32.983162 0 0 0 -18.584802,29.670415 32.983162,32.983162 0 0 0 32.983396,32.983 32.983162,32.983162 0 0 0 24.926838,-11.41862 32.760301,32.760301 0 0 1 -15.343877,3.84152 32.760301,32.760301 0 0 1 -32.760219,-32.76022 32.760301,32.760301 0 0 1 8.778664,-22.316095 z" />
    <path
       id="path499-3-7-2"
       style="fill:#000000;stroke-width:0.0372653"
       inkscape:transform-center-x="-0.080196766"
       inkscape:transform-center-y="0.72963092"
       d="m 144.05777,182.33863 c -0.3659,1.40358 -1.1007,3.20518 -3.35917,4.2459 2.25847,1.04072 2.99327,2.84223 3.35917,4.24582 0.23748,-1.427 0.63533,-3.22851 3.35883,-4.24582 -2.7235,-1.01731 -3.12135,-2.8189 -3.35883,-4.2459 z" />
  </g>
</svg>
