<?xml version="1.0" encoding="UTF-8" standalone="no"?>
<!-- Created with Inkscape (http://www.inkscape.org/) -->

<svg
   width="193.29573mm"
   height="111.71494mm"
   viewBox="0 0 193.29573 111.71494"
   version="1.1"
   id="svg5"
   xmlns:inkscape="http://www.inkscape.org/namespaces/inkscape"
   xmlns:sodipodi="http://sodipodi.sourceforge.net/DTD/sodipodi-0.dtd"
   xmlns="http://www.w3.org/2000/svg"
   xmlns:svg="http://www.w3.org/2000/svg">
  <sodipodi:namedview
     id="namedview7"
     pagecolor="#505050"
     bordercolor="#ffffff"
     borderopacity="1"
     inkscape:showpageshadow="0"
     inkscape:pageopacity="0"
     inkscape:pagecheckerboard="1"
     inkscape:deskcolor="#505050"
     inkscape:document-units="mm"
     showgrid="false" />
  <defs
     id="defs2" />
  <g
     inkscape:label="Layer 1"
     inkscape:groupmode="layer"
     id="layer1"
     transform="translate(-3.9883121,-8.0211341)">
    <path
       id="path111"
       style="fill:#000000;stroke-width:0.264583"
       d="M 96.668734,13.647354 A 31.505663,31.505663 0 0 0 65.163171,45.152925 31.505663,31.505663 0 0 0 96.668734,76.658487 31.505663,31.505663 0 0 0 126.52738,55.146113 25.520964,25.520964 0 0 1 109.22817,61.907457 25.520964,25.520964 0 0 1 83.707259,36.386535 25.520964,25.520964 0 0 1 97.642834,13.663891 a 31.505663,31.505663 0 0 0 -0.9741,-0.01654 z"
       inkscape:export-filename="path111.svg"
       inkscape:export-xdpi="96"
       inkscape:export-ydpi="96" />
    <path
       id="path499"
       style="fill:#000000;stroke-width:0.0612065"
       inkscape:transform-center-x="-0.13171873"
       inkscape:transform-center-y="1.1983832"
       d="m 147.91117,8.021134 c -0.60098,2.305328 -1.80784,5.26437 -5.51728,6.9737 3.70944,1.70933 4.9163,4.668232 5.51728,6.97356 0.39005,-2.343779 1.0435,-5.302681 5.51672,-6.97356 -4.47322,-1.670879 -5.12667,-4.629921 -5.51672,-6.9737 z" />
    <path
       id="path499-5"
       style="fill:#000000;stroke-width:0.0612065"
       inkscape:transform-center-x="-0.13171873"
       inkscape:transform-center-y="1.1983832"
       d="m 40.44709,51.40988 c -0.60098,2.305328 -1.80784,5.26437 -5.51728,6.9737 3.70944,1.70933 4.9163,4.668232 5.51728,6.97356 0.39005,-2.343779 1.0435,-5.302681 5.51672,-6.97356 -4.47322,-1.670879 -5.12667,-4.629921 -5.51672,-6.9737 z" />
    <path
       id="path499-3"
       style="fill:#000000;stroke-width:0.096312"
       inkscape:transform-center-x="-0.20726687"
       inkscape:transform-center-y="1.8857254"
       d="m 167.79906,11.216748 c -0.94568,3.627568 -2.84474,8.283792 -8.68176,10.973522 5.83702,2.68973 7.73608,7.345735 8.68176,10.973302 0.61377,-3.688072 1.64201,-8.344076 8.68088,-10.973302 -7.03887,-2.629225 -8.06711,-7.285449 -8.68088,-10.973522 z" />
    <path
       id="path499-6"
       style="fill:#000000;stroke-width:0.0612065"
       inkscape:transform-center-x="-0.13171873"
       inkscape:transform-center-y="1.1983832"
       d="m 157.05644,38.179289 c -0.60098,2.305328 -1.80784,5.26437 -5.51728,6.9737 3.70944,1.70933 4.9163,4.668232 5.51728,6.97356 0.39005,-2.343779 1.0435,-5.302681 5.51672,-6.97356 -4.47322,-1.670879 -5.12667,-4.629921 -5.51672,-6.9737 z" />
    <path
       id="path544"
       style="fill:#000000;stroke-width:0.264583"
       d="m 54.067444,78.034285 a 14.583418,14.033085 0 0 0 -12.841077,7.4073 14.033092,9.7681303 0 0 0 -10.822595,-3.55482 14.033092,9.7681303 0 0 0 -14.033252,9.76787 14.033092,9.7681303 0 0 0 0.0067,0.12713 14.583405,10.937568 0 0 0 -12.388908,10.810195 14.583405,10.937568 0 0 0 14.583606,10.93784 14.583405,10.937568 0 0 0 9.040275,-2.35645 14.457961,8.8509197 0 0 0 9.820072,2.35645 14.457961,8.8509197 0 0 0 6.660576,-0.99529 19.261105,10.043287 0 0 0 13.551627,2.92127 19.261105,10.043287 0 0 0 19.26084,-10.04332 19.261105,10.043287 0 0 0 -9.143628,-8.545205 14.583418,14.033085 0 0 0 0.888835,-4.79972 14.583418,14.033085 0 0 0 -14.583089,-14.03325 z" />
    <path
       id="path544-3"
       style="fill:#000000;stroke-width:0.264583"
       d="m 136.28198,82.314579 a 14.583418,14.033085 0 0 0 -12.84107,7.4073 14.033092,9.7681303 0 0 0 -10.8226,-3.55482 14.033092,9.7681303 0 0 0 -14.03325,9.76787 14.033092,9.7681303 0 0 0 0.0067,0.12713 14.583405,10.937568 0 0 0 -12.388908,10.810191 14.583405,10.937568 0 0 0 14.583608,10.93784 14.583405,10.937568 0 0 0 9.04027,-2.35645 14.457961,8.8509197 0 0 0 9.82008,2.35645 14.457961,8.8509197 0 0 0 6.66057,-0.99529 19.261105,10.043287 0 0 0 13.55163,2.92127 19.261105,10.043287 0 0 0 19.26084,-10.04332 19.261105,10.043287 0 0 0 -9.14363,-8.5452 14.583418,14.033085 0 0 0 0.88884,-4.799721 14.583418,14.033085 0 0 0 -14.58309,-14.03325 z" />
    <path
       id="path544-7"
       style="fill:#000000;stroke-width:0.281772"
       d="m 150.04027,65.443733 a 13.75794,16.870648 0 0 1 12.11422,8.905095 13.238765,11.743297 0 0 1 10.21,-4.273623 13.238765,11.743297 0 0 1 13.23891,11.742985 13.238765,11.743297 0 0 1 -0.007,0.152835 13.757928,13.149201 0 0 1 11.68765,12.996065 13.757928,13.149201 0 0 1 -13.75812,13.14952 13.757928,13.149201 0 0 1 -8.52856,-2.83293 13.639585,10.640622 0 0 1 -9.26422,2.83293 13.639585,10.640622 0 0 1 -6.28356,-1.19653 18.170852,12.074092 0 0 1 -12.78456,3.51195 18.170852,12.074092 0 0 1 -18.17059,-12.07412 18.170852,12.074092 0 0 1 8.62606,-10.273087 13.75794,16.870648 0 0 1 -0.83852,-5.770244 13.75794,16.870648 0 0 1 13.75763,-16.870846 z" />
  </g>
</svg>
