<?xml version="1.0" encoding="UTF-8" standalone="no"?>
<!-- Created with Inkscape (http://www.inkscape.org/) -->

<svg
   width="64.937119mm"
   height="97.892403mm"
   viewBox="0 0 64.937119 97.892403"
   version="1.1"
   id="svg5"
   inkscape:version="1.2.1 (9c6d41e410, 2022-07-14)"
   sodipodi:docname="confused.svg"
   xmlns:inkscape="http://www.inkscape.org/namespaces/inkscape"
   xmlns:sodipodi="http://sodipodi.sourceforge.net/DTD/sodipodi-0.dtd"
   xmlns="http://www.w3.org/2000/svg"
   xmlns:svg="http://www.w3.org/2000/svg">
  <sodipodi:namedview
     id="namedview7"
     pagecolor="#505050"
     bordercolor="#ffffff"
     borderopacity="1"
     inkscape:showpageshadow="0"
     inkscape:pageopacity="0"
     inkscape:pagecheckerboard="1"
     inkscape:deskcolor="#505050"
     inkscape:document-units="mm"
     showgrid="false"
     inkscape:zoom="1.829812"
     inkscape:cx="409.87817"
     inkscape:cy="224.33999"
     inkscape:window-width="2154"
     inkscape:window-height="1244"
     inkscape:window-x="1115"
     inkscape:window-y="87"
     inkscape:window-maximized="0"
     inkscape:current-layer="layer1" />
  <defs
     id="defs2" />
  <g
     inkscape:label="Layer 1"
     inkscape:groupmode="layer"
     id="layer1"
     transform="translate(-395.18951,-192.94318)">
    <path
       id="path752-1-9-22-6"
       style="fill:#000000;stroke-width:0.212387"
       d="m 427.65781,225.89794 a 32.468716,32.468716 0 0 0 -32.4683,32.46882 32.468716,32.468716 0 0 0 32.4683,32.46882 32.468716,32.468716 0 0 0 32.46882,-32.46882 32.468716,32.468716 0 0 0 -32.46882,-32.46882 z m -11.41171,26.00255 a 4.8152881,6.4662375 0 0 1 4.81521,6.46627 4.8152881,6.4662375 0 0 1 -4.81521,6.46627 4.8152881,6.4662375 0 0 1 -4.81521,-6.46627 4.8152881,6.4662375 0 0 1 4.81521,-6.46627 z m 23.0942,0 a 4.8152881,6.4662375 0 0 1 4.81521,6.46627 4.8152881,6.4662375 0 0 1 -4.81521,6.46627 4.8152881,6.4662375 0 0 1 -4.81521,-6.46627 4.8152881,6.4662375 0 0 1 4.81521,-6.46627 z m -11.68146,16.41295 a 6.2540191,9.1876731 0 0 1 5.2095,4.11086 8.8124317,5.0016499 0 0 0 -5.2095,-0.9679 8.8124317,5.0016499 0 0 0 -5.21105,0.971 6.2540191,9.1876731 0 0 1 5.21105,-4.11396 z"
       inkscape:export-filename="text274.svg"
       inkscape:export-xdpi="96"
       inkscape:export-ydpi="96" />
    <g
       aria-label="!?"
       id="text274"
       style="font-size:39.4217px;stroke-width:3.28515">
      <path
         d="m 423.5433,193.41624 h -4.02101 l 0.43364,18.09456 h 3.19316 z m -1.97108,22.15499 c -1.53745,0 -2.7201,1.22208 -2.7201,2.7201 0,1.53745 1.18265,2.75952 2.7201,2.75952 1.57687,0 2.75952,-1.22207 2.75952,-2.75952 0,-1.49802 -1.18265,-2.7201 -2.75952,-2.7201 z"
         style="font-family:'Fira Sans';-inkscape-font-specification:'Fira Sans'"
         id="path698" />
      <path
         d="m 434.93613,192.94318 c -3.27201,0 -5.95268,1.26149 -8.19972,3.90275 l 2.48357,1.93166 c 1.61629,-1.97109 3.50853,-2.83836 5.47961,-2.83836 2.44415,0 3.9816,1.22207 3.9816,3.39026 0,4.25755 -6.93822,3.58738 -6.93822,10.21022 v 1.97109 h 3.58737 v -1.77398 c 0,-5.16424 7.13533,-4.33639 7.13533,-10.64386 0,-3.15373 -2.56241,-6.14978 -7.52954,-6.14978 z m -1.30092,22.62805 c -1.53745,0 -2.7201,1.22208 -2.7201,2.7201 0,1.53745 1.18265,2.75952 2.7201,2.75952 1.57687,0 2.75952,-1.22207 2.75952,-2.75952 0,-1.49802 -1.18265,-2.7201 -2.75952,-2.7201 z"
         style="font-family:'Fira Sans';-inkscape-font-specification:'Fira Sans'"
         id="path700" />
    </g>
  </g>
</svg>
