<?xml version="1.0" encoding="UTF-8" standalone="no"?>
<!-- Created with Inkscape (http://www.inkscape.org/) -->

<svg
   width="64.937103mm"
   height="64.937637mm"
   viewBox="0 0 64.937103 64.937637"
   version="1.1"
   id="svg5"
   inkscape:version="1.2.1 (9c6d41e410, 2022-07-14)"
   sodipodi:docname="bg-opts.svg"
   xmlns:inkscape="http://www.inkscape.org/namespaces/inkscape"
   xmlns:sodipodi="http://sodipodi.sourceforge.net/DTD/sodipodi-0.dtd"
   xmlns="http://www.w3.org/2000/svg"
   xmlns:svg="http://www.w3.org/2000/svg">
  <sodipodi:namedview
     id="namedview7"
     pagecolor="#505050"
     bordercolor="#ffffff"
     borderopacity="1"
     inkscape:showpageshadow="0"
     inkscape:pageopacity="0"
     inkscape:pagecheckerboard="1"
     inkscape:deskcolor="#505050"
     inkscape:document-units="mm"
     showgrid="false"
     inkscape:zoom="0.914906"
     inkscape:cx="1487.038"
     inkscape:cy="748.16429"
     inkscape:window-width="2154"
     inkscape:window-height="1244"
     inkscape:window-x="1115"
     inkscape:window-y="108"
     inkscape:window-maximized="0"
     inkscape:current-layer="layer1" />
  <defs
     id="defs2" />
  <g
     inkscape:label="Layer 1"
     inkscape:groupmode="layer"
     id="layer1"
     transform="translate(-350.06358,-187.9261)">
    <path
       id="path752-1-9-22-6"
       style="fill:#000000;stroke-width:0.212387"
       d="m 382.53188,187.9261 a 32.468716,32.468716 0 0 0 -32.4683,32.46882 32.468716,32.468716 0 0 0 32.4683,32.46881 32.468716,32.468716 0 0 0 32.46882,-32.46881 32.468716,32.468716 0 0 0 -32.46882,-32.46882 z m -11.41171,26.00254 a 4.8152881,6.4662375 0 0 1 4.81521,6.46628 4.8152881,6.4662375 0 0 1 -4.81521,6.46627 4.8152881,6.4662375 0 0 1 -4.81521,-6.46627 4.8152881,6.4662375 0 0 1 4.81521,-6.46628 z m 23.0942,0 a 4.8152881,6.4662375 0 0 1 4.81521,6.46628 4.8152881,6.4662375 0 0 1 -4.81521,6.46627 4.8152881,6.4662375 0 0 1 -4.81521,-6.46627 4.8152881,6.4662375 0 0 1 4.81521,-6.46628 z m -0.002,14.43633 2.05828,3.56464 a 2.6073,3.2430297 0 0 1 0.002,0.003 2.6073,3.2430297 0 0 1 0.11524,0.2005 2.6073,3.2430297 0 0 1 5.2e-4,0.002 2.6073,3.2430297 0 0 1 0.43356,1.79007 2.6073,3.2430297 0 0 1 -2.60759,3.24321 2.6073,3.2430297 0 0 1 -2.60707,-3.24321 2.6073,3.2430297 0 0 1 0.43459,-1.79007 h -0.006 z m -11.67939,1.97663 a 6.2540191,9.1876731 0 0 1 5.20951,4.11086 8.8124317,5.0016499 0 0 0 -5.20951,-0.9679 8.8124317,5.0016499 0 0 0 -5.21105,0.971 6.2540191,9.1876731 0 0 1 5.21105,-4.11396 z" />
  </g>
</svg>
