<?xml version="1.0" encoding="UTF-8" standalone="no"?>
<!-- Created with Inkscape (http://www.inkscape.org/) -->

<svg
   width="115.00167mm"
   height="40.352005mm"
   viewBox="0 0 115.00167 40.352005"
   version="1.1"
   id="svg828"
   inkscape:version="1.1.2 (0a00cf5339, 2022-02-04)"
   sodipodi:docname="share.svg"
   xmlns:inkscape="http://www.inkscape.org/namespaces/inkscape"
   xmlns:sodipodi="http://sodipodi.sourceforge.net/DTD/sodipodi-0.dtd"
   xmlns="http://www.w3.org/2000/svg"
   xmlns:svg="http://www.w3.org/2000/svg">
  <sodipodi:namedview
     id="namedview830"
     pagecolor="#ffffff"
     bordercolor="#666666"
     borderopacity="1.0"
     inkscape:pageshadow="2"
     inkscape:pageopacity="0.0"
     inkscape:pagecheckerboard="0"
     inkscape:document-units="mm"
     showgrid="false"
     inkscape:snap-bbox="true"
     inkscape:bbox-paths="true"
     inkscape:bbox-nodes="true"
     inkscape:snap-bbox-edge-midpoints="true"
     inkscape:snap-bbox-midpoints="true"
     inkscape:zoom="1.7184441"
     inkscape:cx="218.80258"
     inkscape:cy="15.420927"
     inkscape:window-width="3440"
     inkscape:window-height="1355"
     inkscape:window-x="0"
     inkscape:window-y="0"
     inkscape:window-maximized="1"
     inkscape:current-layer="layer1" />
  <defs
     id="defs825" />
  <g
     inkscape:label="Layer 1"
     inkscape:groupmode="layer"
     id="layer1"
     transform="translate(-41.67147,-125.97349)">
    <g
       id="g3008"
       transform="matrix(0.31539657,0,0,0.31539657,-108.83125,28.090079)"
       style="fill:#2b0000">
      <path
         id="path2359"
         style="fill:#2b0000;stroke-width:0.999999"
         d="M -435.26172,499.66406 A 168.69605,168.69605 0 0 0 -602.50977,647.0957 h 26.45118 a 142.47018,142.47018 0 0 1 140.79687,-121.20508 142.47018,142.47018 0 0 1 140.86328,121.20508 h 26.48633 A 168.69605,168.69605 0 0 0 -435.26172,499.66406 Z M -602.50977,689.625 A 168.69605,168.69605 0 0 0 -435.26172,837.05664 168.69605,168.69605 0 0 0 -268.00977,689.625 h -26.38867 A 142.47018,142.47018 0 0 1 -435.26172,810.83203 142.47018,142.47018 0 0 1 -576.05859,689.625 Z"
         transform="scale(0.26458333)" />
      <path
         sodipodi:type="star"
         style="fill:#2b0000"
         id="path2750"
         inkscape:flatsided="false"
         sodipodi:sides="3"
         sodipodi:cx="-1298.5869"
         sodipodi:cy="229.74969"
         sodipodi:r1="53.88797"
         sodipodi:r2="107.77594"
         sodipodi:arg1="1.5707963"
         sodipodi:arg2="2.6179939"
         inkscape:rounded="0"
         inkscape:randomized="0"
         d="m -1298.5869,283.63766 -93.3367,0 46.6683,-80.83195 46.6684,-80.83196 46.6683,80.83196 46.6684,80.83196 z"
         transform="matrix(0.08409915,0,0,0.08409915,-46.499817,162.95624)"
         inkscape:transform-center-y="7.4454119e-06"
         inkscape:transform-center-x="-4.2327168e-06" />
      <path
         sodipodi:type="star"
         style="fill:#2b0000"
         id="path3003"
         inkscape:flatsided="false"
         sodipodi:sides="3"
         sodipodi:cx="-1298.5869"
         sodipodi:cy="229.74969"
         sodipodi:r1="53.88797"
         sodipodi:r2="107.77594"
         sodipodi:arg1="1.5707963"
         sodipodi:arg2="2.6179939"
         inkscape:rounded="0"
         inkscape:randomized="0"
         d="m -1298.5869,283.63766 -93.3367,0 46.6683,-80.83195 46.6684,-80.83196 46.6683,80.83196 46.6684,80.83196 z"
         transform="matrix(-0.08409915,0,0,-0.08409915,-184.76965,190.1886)"
         inkscape:transform-center-y="-3.2433592e-06"
         inkscape:transform-center-x="2.6856761e-06" />
    </g>
    <g
       id="g3425"
       transform="matrix(0.47814012,0,0,0.47814012,37.315657,-49.002987)">
      <rect
         style="fill:#2b0000;stroke-width:0.199818"
         id="rect3230"
         width="49.592453"
         height="65.314453"
         x="-180.05086"
         y="107.3441"
         ry="5.254108" />
      <rect
         style="fill:#ffffff;stroke-width:0.247728"
         id="rect3232"
         width="27.041094"
         height="4.2141891"
         x="-173.16496"
         y="117.95059"
         ry="2.1070945" />
      <rect
         style="fill:#ffffff;stroke-width:0.22585"
         id="rect3234"
         width="22.475714"
         height="4.2141891"
         x="-173.16496"
         y="123.89613"
         ry="2.1070945" />
      <rect
         style="fill:#ffffff;stroke-width:0.201611"
         id="rect3316"
         width="17.910332"
         height="4.2141891"
         x="-173.16496"
         y="129.84167"
         ry="2.1070945" />
      <rect
         style="fill:#ffffff;stroke-width:0.229351"
         id="rect3318"
         width="23.178082"
         height="4.2141891"
         x="-173.16496"
         y="135.78714"
         ry="2.1070945" />
    </g>
    <g
       id="g32253">
      <circle
         style="fill:#2b0000;fill-rule:evenodd;stroke-width:0.139952"
         id="circle3523"
         cx="57.561615"
         cy="135.79369"
         r="9.8201952" />
      <path
         id="path3525"
         style="fill:#2b0000;fill-rule:evenodd;stroke-width:0.196022"
         d="m 57.65189,147.39947 a 15.980121,17.765619 0 0 0 -15.98042,17.76545 15.980121,17.765619 0 0 0 0.0393,1.16057 h 31.88186 a 15.980121,17.765619 0 0 0 0.0393,-1.16057 15.980121,17.765619 0 0 0 -15.98007,-17.76545 z" />
      <path
         id="rect3527"
         style="fill:#2b0000;stroke-width:0.251681"
         d="M 134.80469 41.732422 C 131.13842 41.732422 128.18555 44.685294 128.18555 48.351562 L 128.18555 117.38281 C 128.18555 121.04908 131.13842 124 134.80469 124 L 184.0332 124 C 187.69947 124 190.65039 121.04908 190.65039 117.38281 L 190.65039 48.351562 C 190.65039 44.685294 187.69947 41.732422 184.0332 41.732422 L 134.80469 41.732422 z M 139.51367 55.091797 L 168.26562 55.091797 C 169.73594 55.091797 170.91992 56.275781 170.91992 57.746094 C 170.91992 59.216406 169.73594 60.400391 168.26562 60.400391 L 139.51367 60.400391 C 138.04336 60.400391 136.85938 59.216406 136.85938 57.746094 C 136.85938 56.275781 138.04336 55.091797 139.51367 55.091797 z M 139.51367 62.582031 L 162.51562 62.582031 C 163.98594 62.582031 165.16797 63.764063 165.16797 65.234375 C 165.16797 66.704687 163.98594 67.888672 162.51562 67.888672 L 139.51367 67.888672 C 138.04336 67.888672 136.85937 66.704687 136.85938 65.234375 C 136.85938 63.764063 138.04336 62.582031 139.51367 62.582031 z M 139.51367 70.070312 L 156.76367 70.070312 C 158.23398 70.070312 159.41797 71.254297 159.41797 72.724609 C 159.41797 74.194922 158.23398 75.378906 156.76367 75.378906 L 139.51367 75.378906 C 138.04336 75.378906 136.85937 74.194922 136.85938 72.724609 C 136.85938 71.254297 138.04336 70.070313 139.51367 70.070312 z M 139.51367 77.558594 L 163.39844 77.558594 C 164.86875 77.558594 166.05273 78.742578 166.05273 80.212891 C 166.05273 81.683203 164.86875 82.867186 163.39844 82.867188 L 139.51367 82.867188 C 138.04336 82.867188 136.85937 81.683203 136.85938 80.212891 C 136.85938 78.742578 138.04336 77.558594 139.51367 77.558594 z "
         transform="matrix(0.26458333,0,0,0.26458333,41.67147,125.97349)" />
    </g>
    <g
       id="g47974">
      <circle
         style="fill:#2b0000;fill-rule:evenodd;stroke-width:0.139952"
         id="circle47960"
         cx="-140.73749"
         cy="135.88745"
         r="9.8201952"
         transform="scale(-1,1)" />
      <path
         id="path47962"
         style="fill:#2b0000;fill-rule:evenodd;stroke-width:0.196022"
         d="m 140.64722,147.49324 a -15.980121,17.765619 0 0 1 15.98042,17.76545 -15.980121,17.765619 0 0 1 -0.0393,1.16057 h -31.88186 a -15.980121,17.765619 0 0 1 -0.0393,-1.16057 -15.980121,17.765619 0 0 1 15.98007,-17.76545 z" />
      <path
         id="path47964"
         style="fill:#2b0000;stroke-width:0.0665906"
         d="m 120.96057,137.10896 c 0.97003,0 1.75131,0.78128 1.75131,1.75132 v 18.26451 c 0,0.97004 -0.78128,1.7508 -1.75131,1.7508 h -13.02505 c -0.97003,0 -1.7508,-0.78076 -1.7508,-1.7508 v -18.26451 c 0,-0.97004 0.78077,-1.75132 1.7508,-1.75132 z m -1.24592,3.53467 h -7.60729 c -0.38902,0 -0.70228,0.31326 -0.70228,0.70228 0,0.38902 0.31326,0.70229 0.70228,0.70229 h 7.60729 c 0.38902,0 0.70228,-0.31327 0.70228,-0.70229 0,-0.38902 -0.31326,-0.70228 -0.70228,-0.70228 z m 0,1.98179 h -6.08593 c -0.38903,0 -0.70177,0.31275 -0.70177,0.70177 0,0.38902 0.31274,0.70228 0.70177,0.70228 h 6.08593 c 0.38902,0 0.70228,-0.31326 0.70228,-0.70228 0,-0.38902 -0.31326,-0.70177 -0.70228,-0.70177 z m 0,1.98128 h -4.56406 c -0.38902,0 -0.70229,0.31326 -0.70229,0.70228 0,0.38902 0.31327,0.70228 0.70229,0.70228 h 4.56406 c 0.38902,0 0.70228,-0.31326 0.70228,-0.70228 0,-0.38902 -0.31326,-0.70228 -0.70228,-0.70228 z m 0,1.98127 h -6.31951 c -0.38902,0 -0.70228,0.31326 -0.70228,0.70228 0,0.38902 0.31326,0.70229 0.70228,0.70229 h 6.31951 c 0.38902,0 0.70228,-0.31327 0.70228,-0.70229 0,-0.38902 -0.31326,-0.70228 -0.70228,-0.70228 z" />
    </g>
  </g>
</svg>
