<?xml version="1.0" encoding="UTF-8" standalone="no"?>
<!-- Created with Inkscape (http://www.inkscape.org/) -->

<svg
   width="171.71094mm"
   height="171.71098mm"
   viewBox="0 0 171.71094 171.71098"
   version="1.1"
   id="svg5"
   sodipodi:docname="wishr-logo.svg"
   xmlns:inkscape="http://www.inkscape.org/namespaces/inkscape"
   xmlns:sodipodi="http://sodipodi.sourceforge.net/DTD/sodipodi-0.dtd"
   xmlns="http://www.w3.org/2000/svg"
   xmlns:svg="http://www.w3.org/2000/svg">
  <sodipodi:namedview
     id="namedview7"
     pagecolor="#505050"
     bordercolor="#ffffff"
     borderopacity="1"
     inkscape:showpageshadow="0"
     inkscape:pageopacity="0"
     inkscape:pagecheckerboard="1"
     inkscape:deskcolor="#505050"
     inkscape:document-units="mm"
     showgrid="false"
     inkscape:zoom="1.829812"
     inkscape:cx="353.04173"
     inkscape:cy="550.32976"
     inkscape:window-width="1982"
     inkscape:window-height="1265"
     inkscape:window-x="551"
     inkscape:window-y="66"
     inkscape:window-maximized="0"
     inkscape:current-layer="layer1" />
  <defs
     id="defs2" />
  <g
     inkscape:label="Layer 1"
     inkscape:groupmode="layer"
     id="layer1"
     transform="translate(-422.36201,137.35125)">
    <path
       id="path111-0-7-9-2"
       style="fill:#000000;stroke-width:0.402504"
       d="m 538.77609,-137.35125 a 45.495153,53.473798 0 0 1 8.9855,31.84406 45.495153,53.473798 0 0 1 -6.2792,27.075352 64.022419,75.250256 0 0 0 -55.09793,-36.977082 64.022419,75.250256 0 0 0 -64.02245,75.250192 64.022419,75.250256 0 0 0 55.29637,74.51845 45.495153,53.473798 0 0 1 -8.9855,-31.8440503 45.495153,53.473798 0 0 1 6.27868,-27.0753497 64.022419,75.250256 0 0 0 55.09897,36.97655 64.022419,75.250256 0 0 0 64.02245,-75.25018 64.022419,75.250256 0 0 0 -55.29689,-74.517942 z m -30.55834,55.926312 17.27905,29.92892 -17.27905,29.92944 -8.63927,-14.96343 v -5.2e-4 l -8.64029,-14.96549 z" />
  </g>
</svg>
